<svg xmlns="http://www.w3.org/2000/svg" xmlns:xlink="http://www.w3.org/1999/xlink" width="33.325" height="36.355" viewBox="0 0 33.325 36.355">
  <defs>
    <clipPath id="clip-path">
      <rect id="Rectangle_72" data-name="Rectangle 72" width="33.325" height="36.355" fill="#ccc"/>
    </clipPath>
  </defs>
  <g id="Group_76" data-name="Group 76" clip-path="url(#clip-path)">
    <path id="Path_42" data-name="Path 42" d="M4.544,22.722A1.515,1.515,0,0,0,3.03,24.237v7.574a1.515,1.515,0,1,0,3.03,0V24.237a1.515,1.515,0,0,0-1.515-1.515m0-3.03a4.544,4.544,0,0,1,4.544,4.544v7.574a4.544,4.544,0,1,1-9.089,0V24.237a4.544,4.544,0,0,1,4.544-4.544M16.663,0a4.544,4.544,0,0,1,4.544,4.544V31.811a4.544,4.544,0,1,1-9.089,0V4.544A4.544,4.544,0,0,1,16.663,0m0,3.03a1.515,1.515,0,0,0-1.515,1.515V31.811a1.515,1.515,0,1,0,3.03,0V4.544A1.515,1.515,0,0,0,16.663,3.03M28.781,10.6a4.544,4.544,0,0,1,4.544,4.544V31.811a4.544,4.544,0,1,1-9.089,0V15.148A4.544,4.544,0,0,1,28.781,10.6m0,3.03a1.515,1.515,0,0,0-1.515,1.515V31.811a1.515,1.515,0,1,0,3.03,0V15.148a1.515,1.515,0,0,0-1.515-1.515" fill="#ccc" fill-rule="evenodd"/>
  </g>
</svg>
