<svg xmlns="http://www.w3.org/2000/svg" width="36.89" height="36.891" viewBox="0 0 36.89 36.891">
  <g id="layer1" transform="translate(-29.529 -280.595)">
    <path id="path18398" d="M18.974,280.6a18.445,18.445,0,1,0,16.664,10.537l-1.831,1.831a1.847,1.847,0,0,1-1.308.544H31.99a14.138,14.138,0,1,1-7.482-7.484v-.509a1.847,1.847,0,0,1,.544-1.308l1.83-1.831a18.356,18.356,0,0,0-7.908-1.781Zm11.665,0a.614.614,0,0,0-.418.181l-4.3,4.3a.615.615,0,0,0-.181.436v4.05l-8.119,8.119a1.917,1.917,0,1,0,2.712,2.71l8.118-8.118H32.5a.615.615,0,0,0,.436-.181l4.3-4.3a.615.615,0,0,0-.436-1.048H33.98l.49-.49a1.917,1.917,0,0,0-2.711-2.711l-.489.489v-2.826a.615.615,0,0,0-.63-.613ZM18.974,289.2a9.869,9.869,0,1,0,8.807,5.483l-3.368,3.368a5.561,5.561,0,1,1-4.45-4.45l3.37-3.37a9.759,9.759,0,0,0-4.358-1.032Z" transform="translate(29)" fill="#ccc"/>
  </g>
</svg>
