<svg id="Group_99" data-name="Group 99" xmlns="http://www.w3.org/2000/svg" xmlns:xlink="http://www.w3.org/1999/xlink" width="17.251" height="17.251" viewBox="0 0 17.251 17.251">
  <defs>
    <clipPath id="clip-path">
      <rect id="Rectangle_36" data-name="Rectangle 36" width="17.251" height="17.251" fill="#999"/>
    </clipPath>
  </defs>
  <g id="Group_27" data-name="Group 27" clip-path="url(#clip-path)">
    <path id="Path_18" data-name="Path 18" d="M16.615,2.058A4.312,4.312,0,0,0,15.191.635C14.154,0,12.743,0,9.919,0H7.332C4.508,0,3.1,0,2.059.635A4.312,4.312,0,0,0,.636,2.058C0,3.1,0,4.507,0,7.331v.863A10.754,10.754,0,0,0,.328,12a4.312,4.312,0,0,0,2.334,2.334,6.379,6.379,0,0,0,2.331.321,2.953,2.953,0,0,1,1.391.188c.291.169.473.476.835,1.089l.468.79a1.1,1.1,0,0,0,1.875,0l.468-.79c.363-.613.544-.919.835-1.089a2.953,2.953,0,0,1,1.391-.188,6.378,6.378,0,0,0,2.331-.321A4.312,4.312,0,0,0,16.922,12a10.754,10.754,0,0,0,.328-3.807V7.331c0-2.823,0-4.235-.636-5.272M9.5,10.615c-.392.289-.588.433-.871.433s-.479-.144-.871-.433c-1.144-.843-3.01-2.45-3.01-3.962,0-2.309,2.135-3.171,3.881-1.387,1.747-1.784,3.881-.922,3.881,1.387,0,1.512-1.866,3.119-3.01,3.962" transform="translate(0 0.001)" fill="#999"/>
  </g>
</svg>
