<svg xmlns="http://www.w3.org/2000/svg" width="88.381" height="72.034" viewBox="0 0 88.381 72.034">
  <g id="layer1" transform="translate(-0.529 -289.748)">
    <path id="rect3327" d="M59.417,289.754c-10.858-.217-22.057,6-25.129,20.03-12.5-4.268-23.792,4.149-22.619,17.589a17.856,17.856,0,0,0,6.714,34.4H40.072c-.006-6.011-.019-18.072-.019-20.357l-5.086,1.843c-3.69,1.59-6.415-3.056-3.255-5.949l9.624-9.352a4.461,4.461,0,0,1,6.769,0l9.624,9.352c3.16,2.893.435,7.539-3.255,5.949l-5.086-1.843v20.357h21.67a17.854,17.854,0,0,0,7.312-34.142c12.054-23.5-3.082-37.561-18.951-37.878Z" transform="translate(0 0.009)" fill="#75b5ff"/>
    <path id="path4201" d="M11.3,289.751c-.6-.012-1.269.009-1.874.036-13.868,21.855,7.564,37.841,20.825,37.841,12.054-23.5-3.082-37.561-18.951-37.878Z" transform="translate(48.116 0)" fill="#488bff"/>
  </g>
</svg>
