<svg xmlns="http://www.w3.org/2000/svg" width="25.116" height="25.1" viewBox="0 0 25.116 25.1">
  <g id="increase" transform="translate(0.55 0.543)">
    <g id="Group_238" data-name="Group 238" transform="translate(0 0.007)">
      <path id="Path_211" data-name="Path 211" d="M23.3,22.6H21.187V7.085H23.3a.7.7,0,0,0,.5-1.2L18.171.215a.7.7,0,0,0-1,0L11.547,5.887a.7.7,0,0,0,.5,1.2h2.109V11.3H9.14a.7.7,0,0,0-.7.7v3.516H3.516a.7.7,0,0,0-.7.7V22.6H.7a.7.7,0,1,0,0,1.406H23.3a.7.7,0,1,0,0-1.406Zm-14.859,0H4.219V16.929H8.437Zm5.719,0H9.844V12.71h4.312ZM19.781,6.382V22.6H15.562V6.382a.7.7,0,0,0-.7-.7H13.734l3.937-3.97,3.937,3.97H20.484A.7.7,0,0,0,19.781,6.382Z" transform="translate(0 -0.007)" fill="#12b000" stroke="#12b000" stroke-width="1.1"/>
    </g>
  </g>
</svg>
