<svg id="Group_100" data-name="Group 100" xmlns="http://www.w3.org/2000/svg" xmlns:xlink="http://www.w3.org/1999/xlink" width="17.652" height="17.652" viewBox="0 0 17.652 17.652">
  <defs>
    <clipPath id="clip-path">
      <rect id="Rectangle_38" data-name="Rectangle 38" width="17.652" height="17.652" fill="#999"/>
    </clipPath>
  </defs>
  <g id="Group_31" data-name="Group 31" clip-path="url(#clip-path)">
    <path id="Path_20" data-name="Path 20" d="M17,2.107A4.413,4.413,0,0,0,15.545.65C14.483,0,13.039,0,10.15,0H7.5C4.613,0,3.168,0,2.107.65A4.413,4.413,0,0,0,.65,2.107C0,3.168,0,4.613,0,7.5v.883a11,11,0,0,0,.336,3.9,4.413,4.413,0,0,0,2.388,2.388A6.528,6.528,0,0,0,5.11,15a3.023,3.023,0,0,1,1.424.193c.3.173.484.487.855,1.114l.478.808a1.121,1.121,0,0,0,1.918,0l.478-.808c.371-.627.557-.94.855-1.114A3.023,3.023,0,0,1,12.542,15a6.528,6.528,0,0,0,2.386-.328,4.413,4.413,0,0,0,2.388-2.388,11,11,0,0,0,.336-3.9V7.5c0-2.889,0-4.334-.65-5.395M10.15,9.929H5.3a.662.662,0,1,1,0-1.324H10.15a.662.662,0,1,1,0,1.324M12.356,6.84H5.3a.662.662,0,0,1,0-1.324h7.061a.662.662,0,0,1,0,1.324" fill="#999"/>
  </g>
</svg>
