<svg id="Group_82" data-name="Group 82" xmlns="http://www.w3.org/2000/svg" xmlns:xlink="http://www.w3.org/1999/xlink" width="17.501" height="17.501" viewBox="0 0 17.501 17.501">
  <defs>
    <clipPath id="clip-path">
      <rect id="Rectangle_76" data-name="Rectangle 76" width="17.501" height="17.501" fill="red"/>
    </clipPath>
  </defs>
  <g id="Group_82-2" data-name="Group 82" clip-path="url(#clip-path)">
    <path id="Path_46" data-name="Path 46" d="M16.856,2.089A4.375,4.375,0,0,0,15.412.645C14.36,0,12.928,0,10.063,0H7.438c-2.864,0-4.3,0-5.349.645A4.375,4.375,0,0,0,.645,2.089C0,3.141,0,4.574,0,7.438v.875a10.911,10.911,0,0,0,.333,3.862A4.376,4.376,0,0,0,2.7,14.543a6.473,6.473,0,0,0,2.365.326,3,3,0,0,1,1.412.191c.3.172.479.483.847,1.1l.474.8a1.112,1.112,0,0,0,1.9,0l.474-.8c.368-.622.552-.932.847-1.1a3,3,0,0,1,1.412-.191,6.473,6.473,0,0,0,2.365-.326,4.375,4.375,0,0,0,2.368-2.368A10.911,10.911,0,0,0,17.5,8.313V7.438c0-2.864,0-4.3-.645-5.349m-9.991,0a1.359,1.359,0,0,1,1.807.663,1.33,1.33,0,0,1-.651,1.778,1.349,1.349,0,0,1-1.794-.623,1.377,1.377,0,0,1,.638-1.818m3.013,11.82a.087.087,0,0,1-.174,0V11.692l-.161-.327c-.316.068-.545-.05-.757-.4C8.476,10.46,6.665,7.463,6.4,6.931a.943.943,0,0,1,.456-1.342Q8.224,4.914,9.616,4.28c.029-.013.059-.025.088-.036V1.38a.087.087,0,1,1,.174,0Z" fill="red"/>
  </g>
</svg>
