<svg xmlns="http://www.w3.org/2000/svg" xmlns:xlink="http://www.w3.org/1999/xlink" width="17.501" height="17.501" viewBox="0 0 17.501 17.501">
  <defs>
    <clipPath id="clip-path">
      <rect id="Rectangle_73" data-name="Rectangle 73" width="17.501" height="17.501" fill="red"/>
    </clipPath>
  </defs>
  <g id="Group_79" data-name="Group 79" clip-path="url(#clip-path)">
    <path id="Path_43" data-name="Path 43" d="M16.856,2.088A4.375,4.375,0,0,0,15.412.644C14.36,0,12.928,0,10.063,0H7.438c-2.864,0-4.3,0-5.349.645A4.375,4.375,0,0,0,.645,2.088C0,3.14,0,4.573,0,7.437v.875a10.912,10.912,0,0,0,.333,3.862A4.375,4.375,0,0,0,2.7,14.542a6.473,6.473,0,0,0,2.365.326,3,3,0,0,1,1.412.191c.3.172.479.483.847,1.1l.474.8a1.112,1.112,0,0,0,1.9,0l.474-.8c.368-.622.552-.932.847-1.1a3,3,0,0,1,1.412-.191,6.472,6.472,0,0,0,2.365-.326,4.375,4.375,0,0,0,2.368-2.368A10.911,10.911,0,0,0,17.5,8.312V7.437c0-2.864,0-4.3-.645-5.349M8.751,3.373A1.891,1.891,0,1,1,6.86,5.264,1.893,1.893,0,0,1,8.751,3.373m3.006,8.6H5.745a.452.452,0,0,1-.452-.452A3.471,3.471,0,0,1,8.029,8.136v0a3.479,3.479,0,0,1,.714-.074h.015a3.479,3.479,0,0,1,.714.074v0a3.471,3.471,0,0,1,2.736,3.388.452.452,0,0,1-.452.452" transform="translate(0 0.001)" fill="red"/>
  </g>
</svg>
