<svg xmlns="http://www.w3.org/2000/svg" xmlns:xlink="http://www.w3.org/1999/xlink" width="33.081" height="34.062" viewBox="0 0 33.081 34.062">
  <defs>
    <clipPath id="clip-path">
      <rect id="Rectangle_116" data-name="Rectangle 116" width="33.081" height="34.062" fill="#ccc"/>
    </clipPath>
  </defs>
  <g id="Group_149" data-name="Group 149" clip-path="url(#clip-path)">
    <path id="Path_73" data-name="Path 73" d="M58,56.869,41.005,39.878a6,6,0,1,0-8.486,8.486L49.51,65.356A6,6,0,1,0,58,56.869M35.341,42.7a2.009,2.009,0,0,1,2.841,0l1.529,1.529L36.87,47.07l-1.529-1.529a2.011,2.011,0,0,1,0-2.841M55.174,62.533a2.011,2.011,0,0,1-2.841,0l-12.64-12.64,2.841-2.841,12.64,12.64a2.011,2.011,0,0,1,0,2.841" transform="translate(-26.671 -33.048)" fill="#ccc"/>
    <path id="Path_74" data-name="Path 74" d="M122.982,4.182l1.516.6a.673.673,0,0,1,.378.38l.6,1.521a.671.671,0,0,0,1.249,0l.6-1.521a.673.673,0,0,1,.378-.38l1.516-.6a.675.675,0,0,0,0-1.254l-1.516-.6a.673.673,0,0,1-.378-.38l-.6-1.521a.671.671,0,0,0-1.249,0l-.6,1.521a.673.673,0,0,1-.378.38l-1.516.6a.675.675,0,0,0,0,1.254" transform="translate(-106.25 0)" fill="#ccc"/>
    <path id="Path_75" data-name="Path 75" d="M173.442,74.049l.553.219a.673.673,0,0,1,.378.38l.218.555a.67.67,0,0,0,1.249,0l.218-.555a.673.673,0,0,1,.378-.38l.552-.219a.675.675,0,0,0,0-1.254l-.552-.219a.673.673,0,0,1-.378-.38l-.218-.555a.671.671,0,0,0-1.249,0l-.218.555a.673.673,0,0,1-.378.38l-.553.219a.675.675,0,0,0,0,1.254" transform="translate(-149.995 -61.74)" fill="#ccc"/>
    <path id="Path_76" data-name="Path 76" d="M2.747,89.821l-.382-.151a.466.466,0,0,1-.262-.263l-.151-.384a.464.464,0,0,0-.864,0l-.151.384a.466.466,0,0,1-.262.263l-.382.151a.467.467,0,0,0,0,.867l.382.151a.465.465,0,0,1,.262.263l.151.384a.464.464,0,0,0,.864,0L2.1,91.1a.465.465,0,0,1,.262-.263l.382-.151a.467.467,0,0,0,0-.867" transform="translate(0 -76.922)" fill="#ccc"/>
    <path id="Path_77" data-name="Path 77" d="M22.142,137.283l-.553-.219a.673.673,0,0,1-.378-.38l-.218-.555a.671.671,0,0,0-1.249,0l-.218.555a.673.673,0,0,1-.378.38l-.553.219a.675.675,0,0,0,0,1.254l.553.219a.673.673,0,0,1,.378.38l.218.555a.671.671,0,0,0,1.249,0l.218-.555a.673.673,0,0,1,.378-.38l.553-.219a.675.675,0,0,0,0-1.254" transform="translate(-15.752 -117.647)" fill="#ccc"/>
  </g>
</svg>
