<svg xmlns="http://www.w3.org/2000/svg" xmlns:xlink="http://www.w3.org/1999/xlink" width="36.885" height="37" viewBox="0 0 36.885 37">
  <defs>
    <clipPath id="clip-path">
      <rect id="Rectangle_14" data-name="Rectangle 14" width="36.885" height="37" fill="#ccc"/>
    </clipPath>
  </defs>
  <g id="Group_12" data-name="Group 12" clip-path="url(#clip-path)">
    <path id="Path_14" data-name="Path 14" d="M35.8,10.622c-1.1-2-2.92-3.134-6.231-5.189L26.249,3.374C22.628,1.127,20.81,0,18.443,0s-4.185,1.128-7.806,3.375L7.32,5.433C4.009,7.488,2.185,8.62,1.089,10.622S0,14.673,0,18.78V21.3a67.341,67.341,0,0,0,.258,7.883,8.668,8.668,0,0,0,2.207,5.237A8.224,8.224,0,0,0,7.591,36.73,59.049,59.049,0,0,0,15.126,37h6.633a59.05,59.05,0,0,0,7.535-.269,8.224,8.224,0,0,0,5.126-2.308,8.669,8.669,0,0,0,2.207-5.237,67.374,67.374,0,0,0,.258-7.883V18.78c0-4.107,0-6.168-1.089-8.158M33.167,18.78V21.3c0,5.96,0,9.066-1.42,10.536-1.395,1.443-4.266,1.443-9.987,1.443H15.126c-5.721,0-8.592,0-9.987-1.443-1.42-1.469-1.42-4.575-1.42-10.535V18.78c0-3.474,0-5.217.633-6.373s2.064-2.037,4.93-3.815L12.6,6.534c3.021-1.875,4.537-2.816,5.845-2.816s2.824.941,5.845,2.816L27.6,8.592c2.865,1.778,4.3,2.671,4.929,3.815s.633,2.9.633,6.373m-8.256,5.188a1.861,1.861,0,0,1-.387,2.6,10.271,10.271,0,0,1-6.082,2.138,10.271,10.271,0,0,1-6.082-2.138,1.859,1.859,0,1,1,2.214-2.987,6.433,6.433,0,0,0,7.736,0,1.861,1.861,0,0,1,2.6.387" transform="translate(0 0.001)" fill="#ccc"/>
  </g>
</svg>
