<svg xmlns="http://www.w3.org/2000/svg" xmlns:xlink="http://www.w3.org/1999/xlink" width="40.415" height="39.081" viewBox="0 0 40.415 39.081">
  <defs>
    <clipPath id="clip-path">
      <rect id="Rectangle_115" data-name="Rectangle 115" width="40.415" height="39.081" fill="#ccc"/>
    </clipPath>
  </defs>
  <g id="Group_147" data-name="Group 147" clip-path="url(#clip-path)">
    <path id="Path_69" data-name="Path 69" d="M29.5,15a7.425,7.425,0,0,0-1.781.217,7.6,7.6,0,0,0-3.19,2.481,8.061,8.061,0,0,1-1.169,1.17,7.725,7.725,0,0,1-1.489.762A7.354,7.354,0,0,0,18.542,21.9a7.424,7.424,0,0,0-1.1,3.827,8.38,8.38,0,0,1-.3,1.648,7.455,7.455,0,0,1-.744,1.435,7.62,7.62,0,0,0-1.364,3.881A7.619,7.619,0,0,0,16.4,36.533a7.455,7.455,0,0,1,.744,1.435,8.39,8.39,0,0,1,.266,1.683,7.425,7.425,0,0,0,1.134,3.828,7.355,7.355,0,0,0,3.314,2.268,7.72,7.72,0,0,1,1.488.762,8.055,8.055,0,0,1,1.17,1.169,7.6,7.6,0,0,0,3.207,2.481,5.157,5.157,0,0,0,1.524.23h.017a10.626,10.626,0,0,0,2.41-.354,7.514,7.514,0,0,1,3.438,0,7.426,7.426,0,0,0,3.952.124,7.6,7.6,0,0,0,3.19-2.481,8.068,8.068,0,0,1,1.169-1.17,7.731,7.731,0,0,1,1.489-.762,7.355,7.355,0,0,0,3.314-2.268,7.425,7.425,0,0,0,1.116-3.828,8.39,8.39,0,0,1,.266-1.683,7.455,7.455,0,0,1,.744-1.435,7.619,7.619,0,0,0,1.4-3.845,7.62,7.62,0,0,0-1.364-3.845,7.456,7.456,0,0,1-.744-1.471,8.379,8.379,0,0,1-.3-1.648A7.424,7.424,0,0,0,48.206,21.9a7.352,7.352,0,0,0-3.314-2.268,7.725,7.725,0,0,1-1.489-.762,8.064,8.064,0,0,1-1.152-1.17,7.6,7.6,0,0,0-3.207-2.481,7.423,7.423,0,0,0-3.881.124,7.514,7.514,0,0,1-3.438,0A7.424,7.424,0,0,0,29.5,15M29.21,46.7a1.462,1.462,0,0,1-.263-.03,3.913,3.913,0,0,1-1.479-1.2l-.045-.059-.047-.058a11.774,11.774,0,0,0-1.7-1.7l-.145-.118-.156-.1a11.438,11.438,0,0,0-2.2-1.126l-.071-.027-.072-.024a3.662,3.662,0,0,1-1.486-.945,3.737,3.737,0,0,1-.445-1.711v-.072l0-.072a12.1,12.1,0,0,0-.383-2.425l-.053-.2-.074-.192a11.154,11.154,0,0,0-1.112-2.145l-.026-.039-.026-.038a3.93,3.93,0,0,1-.678-1.735,3.931,3.931,0,0,1,.68-1.753l.026-.037.025-.038a11.175,11.175,0,0,0,1.112-2.145l.059-.153.045-.158a12.088,12.088,0,0,0,.434-2.374l.011-.134v-.134a3.735,3.735,0,0,1,.42-1.692,3.661,3.661,0,0,1,1.481-.931l.078-.026.077-.029a11.447,11.447,0,0,0,2.2-1.126l.156-.1.145-.118a11.774,11.774,0,0,0,1.7-1.7l.049-.06.046-.062a3.914,3.914,0,0,1,1.387-1.161,3.739,3.739,0,0,1,.625-.053h0a3.731,3.731,0,0,1,1.119.171l.129.041.132.031a11.206,11.206,0,0,0,5.126,0l.118-.028.116-.035a3.731,3.731,0,0,1,1.67-.118A3.911,3.911,0,0,1,39.3,19.908l.037.049.039.048a11.793,11.793,0,0,0,1.679,1.7l.156.129.169.111a11.447,11.447,0,0,0,2.2,1.126l.071.027.072.024a3.659,3.659,0,0,1,1.486.945,3.734,3.734,0,0,1,.446,1.711l0,.12.01.119a12.085,12.085,0,0,0,.434,2.373l.039.136.05.133a11.165,11.165,0,0,0,1.112,2.2l.033.051.035.05a3.928,3.928,0,0,1,.675,1.712,3.929,3.929,0,0,1-.691,1.712l-.037.051-.035.052a11.169,11.169,0,0,0-1.112,2.145l-.074.192-.053.2a12.1,12.1,0,0,0-.383,2.424l0,.079v.079a3.735,3.735,0,0,1-.434,1.7,3.66,3.66,0,0,1-1.48.939l-.072.024-.071.027a11.44,11.44,0,0,0-2.2,1.126l-.156.1-.145.118a11.768,11.768,0,0,0-1.7,1.7l-.049.06-.046.062a3.915,3.915,0,0,1-1.38,1.157,3.738,3.738,0,0,1-1.71-.119l-.123-.038-.126-.03a11.2,11.2,0,0,0-5.126,0l-.054.013-.053.014a6.95,6.95,0,0,1-1.512.229" transform="translate(-13.185 -13.154)" fill="#ccc"/>
    <path id="Path_70" data-name="Path 70" d="M109.319,101.186a2.658,2.658,0,1,0,2.658,2.658,2.658,2.658,0,0,0-2.658-2.658" transform="translate(-93.542 -88.74)" fill="#ccc"/>
    <path id="Path_71" data-name="Path 71" d="M181.353,173.22a2.658,2.658,0,1,0,2.658,2.658,2.658,2.658,0,0,0-2.658-2.658" transform="translate(-156.716 -151.914)" fill="#ccc"/>
    <path id="Path_72" data-name="Path 72" d="M118.992,101.127a1.774,1.774,0,0,0-1.258.521L107.1,112.28l-.01.01a1.772,1.772,0,0,0,.01,2.506l.01.01a1.772,1.772,0,0,0,2.506-.01l10.632-10.632a1.779,1.779,0,0,0-1.258-3.037" transform="translate(-93.469 -88.689)" fill="#ccc"/>
  </g>
</svg>
