<svg id="Group_105" data-name="Group 105" xmlns="http://www.w3.org/2000/svg" xmlns:xlink="http://www.w3.org/1999/xlink" width="17.826" height="17.826" viewBox="0 0 17.826 17.826">
  <defs>
    <clipPath id="clip-path">
      <rect id="Rectangle_84" data-name="Rectangle 84" width="17.826" height="17.826" fill="#999"/>
    </clipPath>
  </defs>
  <g id="Group_105-2" data-name="Group 105" clip-path="url(#clip-path)">
    <path id="Path_53" data-name="Path 53" d="M16.521,1.305C15.215,0,13.115,0,8.913,0s-6.3,0-7.608,1.305S0,4.711,0,8.913s0,6.3,1.305,7.608,3.406,1.305,7.608,1.305,6.3,0,7.608-1.305,1.305-3.406,1.305-7.608,0-6.3-1.305-7.608m-4.71,8.55L7.339,12.375a.706.706,0,0,1-.365.1.756.756,0,0,1-.745-.745V6.688a.748.748,0,0,1,1.111-.648l4.472,2.519a.743.743,0,0,1,0,1.3" fill="#999"/>
    <path id="Path_54" data-name="Path 54" d="M139.3,114.283a1.008,1.008,0,1,0,1.008,1.008,1.009,1.009,0,0,0-1.008-1.008" transform="translate(-130.089 -107.506)" fill="#999"/>
  </g>
</svg>
