<svg xmlns="http://www.w3.org/2000/svg" width="19.611" height="39.02" viewBox="0 0 19.611 39.02">
  <path id="Path_11" data-name="Path 11" d="M299.007,22.68l-4.5-4.5H294.5l-.262-.262L290.5,14.183l4.929-3.372A7.69,7.69,0,0,0,297.493.132L297.4,0,284.921,8.6l-2.23,1.536a7.473,7.473,0,0,0-1.061.882,3.812,3.812,0,0,0,0,5.392l1.512,1.512,2.983,2.983h.007l4,4,.086.081-4.868,3.291a7.69,7.69,0,0,0-2.06,10.679l.041.062,8.152-5.616,4.231-2.915,2.23-1.536a7.474,7.474,0,0,0,1.061-.882,3.812,3.812,0,0,0,0-5.392" transform="translate(-280.513)" fill="red"/>
</svg>
