<svg id="Group_100" data-name="Group 100" xmlns="http://www.w3.org/2000/svg" xmlns:xlink="http://www.w3.org/1999/xlink" width="17.652" height="17.652" viewBox="0 0 17.652 17.652">
  <defs>
    <clipPath id="clip-path">
      <rect id="Rectangle_85" data-name="Rectangle 85" width="17.652" height="17.652" fill="#999"/>
    </clipPath>
  </defs>
  <g id="Group_106" data-name="Group 106">
    <g id="Group_106-2" data-name="Group 106" clip-path="url(#clip-path)">
      <path id="Path_55" data-name="Path 55" d="M16.359,1.293C15.067,0,12.987,0,8.826,0S2.585,0,1.293,1.293,0,4.665,0,8.826s0,6.241,1.293,7.533,3.373,1.293,7.533,1.293,6.241,0,7.533-1.293,1.293-3.373,1.293-7.533,0-6.241-1.293-7.533M4.319,5.3a1,1,0,1,1-1,1,1,1,0,0,1,1-1m.032,6.056a.571.571,0,0,1-.33.1.588.588,0,0,1-.574-.389,5.971,5.971,0,0,1-.4-2.175.614.614,0,0,1,.73-.621.628.628,0,0,1,.487.6c.012.2.022.4.042.6a4.485,4.485,0,0,0,.266,1.1.618.618,0,0,1-.218.784M7.86,14.831c-.109-.027-.273-.062-.433-.11a6.091,6.091,0,0,1-2.274-1.252c-.122-.106-.241-.218-.352-.335a.591.591,0,0,1,.225-.981.6.6,0,0,1,.66.153,4.912,4.912,0,0,0,1.108.831,5.083,5.083,0,0,0,1.2.463.659.659,0,0,1,.495.389.618.618,0,0,1-.625.842M9.4,11.914c-.182,0-.365,0-.547,0a.327.327,0,0,1-.336-.352q0-.978,0-1.956c0-.116,0-.117-.119-.117-.635,0-1.27,0-1.9,0a.544.544,0,0,1-.209-.032.309.309,0,0,1-.193-.3c0-.185,0-.37,0-.555a.323.323,0,0,1,.33-.33c.333,0,.666,0,1,0h.965c.131,0,.131,0,.131-.127q0-.957,0-1.913A.338.338,0,0,1,8.9,5.846c.157,0,.313,0,.47,0a.333.333,0,0,1,.362.362c0,.245,0,.49,0,.735,0,.41,0,.82,0,1.23,0,.077.02.1.1.1.649,0,1.3,0,1.947,0a.34.34,0,0,1,.382.377c0,.151,0,.3,0,.453a.342.342,0,0,1-.383.386c-.638,0-1.276,0-1.913,0-.131,0-.132,0-.132.132,0,.632,0,1.264,0,1.9a.556.556,0,0,1-.038.216.3.3,0,0,1-.3.181m3.714,1.547a5.654,5.654,0,0,1-1.939,1.131c-.222.077-.449.142-.678.2a.614.614,0,0,1-.765-.472.606.606,0,0,1,.475-.709,4.8,4.8,0,0,0,2.522-1.472,4.692,4.692,0,0,0,1.054-1.888,4.634,4.634,0,0,0,.135-2.019A4.761,4.761,0,0,0,11.16,4.505a4.68,4.68,0,0,0-1.954-.454.979.979,0,0,1-.371-.072.6.6,0,0,1-.321-.694.617.617,0,0,1,.611-.464,6.412,6.412,0,0,1,1.153.114,5.951,5.951,0,0,1,2.192.9,6.018,6.018,0,0,1,2.194,2.6,5.688,5.688,0,0,1,.43,1.415c.056.347.076.7.1.937a6.132,6.132,0,0,1-2.086,4.678" fill="#999"/>
    </g>
  </g>
</svg>
