<svg xmlns="http://www.w3.org/2000/svg" xmlns:xlink="http://www.w3.org/1999/xlink" width="24" height="24" viewBox="0 0 24 24">
  <defs>
    <clipPath id="clip-path">
      <rect id="Rectangle_71" data-name="Rectangle 71" width="24" height="24" fill="none"/>
    </clipPath>
  </defs>
  <g id="Group_290" data-name="Group 290" transform="translate(0 -0.416)">
    <g id="Group_74" data-name="Group 74" transform="translate(0 0.416)" clip-path="url(#clip-path)">
      <path id="Path_39" data-name="Path 39" d="M117.125,113.934a3.192,3.192,0,1,1-3.192-3.192,3.192,3.192,0,0,1,3.192,3.192" transform="translate(-101.781 -102.165)" fill="#ac251a"/>
      <path id="Path_40" data-name="Path 40" d="M41.8,51.343A9.542,9.542,0,1,1,51.342,41.8,9.553,9.553,0,0,1,41.8,51.343m0-15.847A6.305,6.305,0,1,0,48.105,41.8,6.313,6.313,0,0,0,41.8,35.5" transform="translate(-29.648 -30.032)" fill="#ac251a"/>
      <path id="Path_41" data-name="Path 41" d="M12.153,24.3A12.152,12.152,0,1,1,24.3,12.152,12.166,12.166,0,0,1,12.153,24.3m0-24.061A11.909,11.909,0,1,0,24.062,12.152,11.923,11.923,0,0,0,12.153.243" transform="translate(-0.001 -0.383)" fill="#e5e5e5"/>
    </g>
  </g>
</svg>
