<svg id="Group_84" data-name="Group 84" xmlns="http://www.w3.org/2000/svg" xmlns:xlink="http://www.w3.org/1999/xlink" width="17.231" height="17.501" viewBox="0 0 17.231 17.501">
  <defs>
    <clipPath id="clip-path">
      <rect id="Rectangle_77" data-name="Rectangle 77" width="17.231" height="17.501" fill="red"/>
    </clipPath>
  </defs>
  <g id="Group_83" data-name="Group 83" clip-path="url(#clip-path)">
    <path id="Path_47" data-name="Path 47" d="M1.463,9.992a34.4,34.4,0,0,1,.144-4.22,4.433,4.433,0,0,1,1.175-2.72A4.434,4.434,0,0,1,5.5,1.878a34.411,34.411,0,0,1,4.22-.144,34.41,34.41,0,0,1,4.22.144c.2.027.392.06.573.1a2.864,2.864,0,0,0-.6-.876C12.819,0,11.049,0,7.509,0S2.2,0,1.1,1.1,0,3.969,0,7.509s0,5.31,1.1,6.409a2.792,2.792,0,0,0,.525.412c-.006-.04-.012-.079-.018-.119a34.4,34.4,0,0,1-.144-4.22" fill="red"/>
    <path id="Path_48" data-name="Path 48" d="M53.323,45.317c-1.1-1.1-2.87-1.1-6.409-1.1s-5.31,0-6.409,1.1-1.1,2.87-1.1,6.409,0,5.31,1.1,6.409,2.87,1.1,6.409,1.1c1.048,0,1.941,0,2.707-.029q-.756-1.115-1.509-2.231l-1.223-1.808-.731,1.016c-.077.106-.152.213-.229.319a.55.55,0,0,1-1.017-.3c-.041-.622-.079-1.244-.118-1.866q-.2-3.105-.393-6.211a.552.552,0,0,1,.854-.57l7.273,3.473a.542.542,0,0,1,.369.591.553.553,0,0,1-.486.484l-1.4.343c-.045.011-.089.027-.15.046.2.293.386.575.576.856Q52.7,55.226,53.966,57.1l.011.019c.445-1.127.445-2.776.445-5.393,0-3.54,0-5.31-1.1-6.409" transform="translate(-37.191 -41.734)" fill="red"/>
  </g>
</svg>
