<svg xmlns="http://www.w3.org/2000/svg" xmlns:xlink="http://www.w3.org/1999/xlink" width="89.477" height="83.885" viewBox="0 0 89.477 83.885">
  <defs>
    <linearGradient id="linear-gradient" x1="0.5" y1="1" x2="0.5" gradientUnits="objectBoundingBox">
      <stop offset="0" stop-color="#ffc2cc"/>
      <stop offset="1" stop-color="#fff2f4"/>
    </linearGradient>
    <linearGradient id="linear-gradient-2" x1="0.5" y1="1" x2="0.5" gradientUnits="objectBoundingBox">
      <stop offset="0" stop-color="#fd3a84"/>
      <stop offset="1" stop-color="#ffa68d"/>
    </linearGradient>
  </defs>
  <g id="upload" transform="translate(0 -16)">
    <g id="Group_264" data-name="Group 264" transform="translate(0.524 23.864)">
      <g id="Group_263" data-name="Group 263">
        <path id="Path_237" data-name="Path 237" d="M73.6,105.564a2.6,2.6,0,0,0,2.621-2.621v-3.3L63.116,71.486,40.48,77.145A10.483,10.483,0,1,0,26.538,80.63l-5.364,1.341L3,116.1a7.726,7.726,0,0,0,7.34,5.19H57.874a2.6,2.6,0,0,0,2.621-2.621A13.112,13.112,0,0,1,73.6,105.564Zm8.929,9.418-5.053-5.033a5.177,5.177,0,0,0-7.562-.21l-5.192,5.194a5.242,5.242,0,0,0,3.635,8.98,5.243,5.243,0,1,0,10.486,0,4.939,4.939,0,0,0,3.635-1.505A5.152,5.152,0,0,0,82.531,114.982Z" transform="translate(-2.999 -61)" fill="url(#linear-gradient)"/>
      </g>
    </g>
    <g id="Group_266" data-name="Group 266" transform="translate(0 16)">
      <g id="Group_265" data-name="Group 265">
        <path id="Path_238" data-name="Path 238" d="M57.446,42.148,73.748,62.5V23.864A7.864,7.864,0,0,0,65.884,16H7.864A7.864,7.864,0,0,0,0,23.864V76.292a6.584,6.584,0,0,0,.524,2.674L21.9,52.641a2.621,2.621,0,0,1,4.1,0l7.438,9.3a2.621,2.621,0,0,0,4.094,0L53.353,42.15A2.622,2.622,0,0,1,57.446,42.148Zm-28.261.065a7.864,7.864,0,1,1,7.864-7.864A7.854,7.854,0,0,1,29.185,42.214ZM71.127,63.185a18.35,18.35,0,1,0,18.35,18.35A18.37,18.37,0,0,0,71.127,63.185ZM78.2,83.369a2.534,2.534,0,0,1-3.67,0l-.787-.734v4.142a2.621,2.621,0,0,1-5.243,0V82.635l-.787.734a2.595,2.595,0,0,1-3.67-3.67l5.243-5.243a2.583,2.583,0,0,1,3.67,0L78.2,79.7A2.534,2.534,0,0,1,78.2,83.369Z" transform="translate(0 -16)" fill="url(#linear-gradient-2)"/>
      </g>
    </g>
  </g>
</svg>
