<svg id="Logo_Component" data-name="Logo Component" xmlns="http://www.w3.org/2000/svg" xmlns:xlink="http://www.w3.org/1999/xlink" width="161.877" height="70.589" viewBox="0 0 161.877 70.589">
  <defs>
    <clipPath id="clip-path">
      <rect id="Rectangle_3" data-name="Rectangle 3" width="161.877" height="70.589" fill="none"/>
    </clipPath>
  </defs>
  <g id="Group_1" data-name="Group 1" clip-path="url(#clip-path)">
    <path id="Path_1" data-name="Path 1" d="M313.968,41.028,305.836,32.9h-.013l-.474-.474-6.762-6.764,8.917-6.1A13.912,13.912,0,0,0,311.23.238L311.069,0,288.487,15.558l-4.034,2.779a13.521,13.521,0,0,0-1.919,1.6,6.9,6.9,0,0,0,0,9.754l2.736,2.736,5.4,5.4h.013l7.238,7.238.155.146-8.807,5.954a13.912,13.912,0,0,0-3.726,19.319l.075.112L300.362,60.43l7.653-5.273,4.034-2.779a13.522,13.522,0,0,0,1.919-1.6,6.9,6.9,0,0,0,0-9.754" transform="translate(-205.424)" fill="red"/>
    <path id="Path_2" data-name="Path 2" d="M6.541,102.549c-2.7-.942-5.73-2.407-5.73-5.809,0-2.59,2.3-5.181,5.992-5.181a7.873,7.873,0,0,1,5.966,2.9L10.6,96.609A5.284,5.284,0,0,0,6.8,94.542c-1.57,0-2.8.968-2.8,2.2,0,1.6,1.439,2.093,3.951,3.035,2.8,1.046,5.129,2.3,5.129,5.625s-2.931,5.1-6.385,5.1A8.006,8.006,0,0,1,0,106.761l2.355-1.988s1.57,2.747,4.343,2.747c1.57,0,3.192-.628,3.192-2.119,0-1.544-1.178-2.093-3.349-2.852" transform="translate(0 -67.05)"/>
    <path id="Path_3" data-name="Path 3" d="M61.591,92.147a2.067,2.067,0,1,1-2.067,2.067,2.055,2.055,0,0,1,2.067-2.067m-1.57,6.07h3.14v12.4h-3.14Z" transform="translate(-43.59 -67.481)"/>
    <path id="Path_4" data-name="Path 4" d="M105.431,118.387v7.981h-3.14V119.2c0-1.7-.654-2.616-2.224-2.616a2.943,2.943,0,0,0-2.433,1.6v8.19h-3.14V119.2c0-1.7-.654-2.616-2.224-2.616a2.944,2.944,0,0,0-2.434,1.6v8.19H86.7v-12.4h2.931v1.806a4.3,4.3,0,0,1,3.663-2.12,3.969,3.969,0,0,1,3.846,2.172,4.343,4.343,0,0,1,3.951-2.172c2.512,0,4.344,1.753,4.344,4.736" transform="translate(-63.489 -83.228)"/>
    <path id="Path_5" data-name="Path 5" d="M171.313,113.965v1.622a4.5,4.5,0,0,1,3.742-1.936,6.534,6.534,0,0,1,0,13.03,4.428,4.428,0,0,1-3.506-1.6v7.3h-3.14V113.965Zm.236,8.059a3.437,3.437,0,0,0,2.957,1.727,3.59,3.59,0,0,0,0-7.169,3.437,3.437,0,0,0-2.957,1.727Z" transform="translate(-123.328 -83.228)"/>
    <rect id="Rectangle_2" data-name="Rectangle 2" width="3.14" height="19.781" transform="translate(60.439 23.358)"/>
    <path id="Path_6" data-name="Path 6" d="M259.963,120.114c0,.235,0,.706-.026,1.178h-9.263a3.541,3.541,0,0,0,3.48,2.512,4.991,4.991,0,0,0,3.4-1.256l1.57,2.355a7.943,7.943,0,0,1-4.971,1.779,6.519,6.519,0,0,1-6.672-6.515,6.245,6.245,0,1,1,12.481-.052m-3.14-1.1a3.137,3.137,0,0,0-6.149,0Z" transform="translate(-181.235 -83.228)"/>
    <path id="Path_7" data-name="Path 7" d="M430.216,99.007v8.033h-3.14V99.793a2.289,2.289,0,0,0-2.46-2.538,3.065,3.065,0,0,0-2.46,1.622v8.164h-3.14V87.259h3.14v8.87a4.209,4.209,0,0,1,3.506-1.806,4.444,4.444,0,0,1,4.553,4.684" transform="translate(-306.852 -63.901)"/>
    <path id="Path_8" data-name="Path 8" d="M481.889,118.282v8.085h-2.9V124.8a5.021,5.021,0,0,1-4.082,1.884,4.194,4.194,0,0,1-4.474-4.16c0-2.381,2.172-4.108,4.867-4.108a6.026,6.026,0,0,1,3.454.89V118.6c0-1.622-1.57-2.146-2.669-2.146a10.066,10.066,0,0,0-3.716.916l-1.02-2.591a12.561,12.561,0,0,1,4.893-1.125c3.559,0,5.652,1.806,5.652,4.631m-3.14,4.344v-1.282a6.27,6.27,0,0,0-2.826-.628c-.968,0-2.3.419-2.3,1.753,0,1.308,1.282,1.6,2.25,1.6a3.677,3.677,0,0,0,2.878-1.439" transform="translate(-344.502 -83.228)"/>
    <path id="Path_9" data-name="Path 9" d="M533.472,114.043l-1.1,2.826a3.606,3.606,0,0,0-1.492-.288,3.279,3.279,0,0,0-2.773,1.675v8.111h-3.14v-12.4h2.983v1.805a4.039,4.039,0,0,1,3.375-2.12,6.749,6.749,0,0,1,2.146.393" transform="translate(-384.442 -83.228)"/>
    <path id="Path_10" data-name="Path 10" d="M570.585,120.114c0,.235,0,.706-.026,1.178H561.3a3.54,3.54,0,0,0,3.48,2.512,4.99,4.99,0,0,0,3.4-1.256l1.57,2.355a7.943,7.943,0,0,1-4.972,1.779,6.519,6.519,0,0,1-6.672-6.515,6.245,6.245,0,1,1,12.481-.052m-3.14-1.1a3.137,3.137,0,0,0-6.149,0Z" transform="translate(-408.708 -83.228)"/>
  </g>
</svg>
